<svg xmlns="http://www.w3.org/2000/svg" viewBox="0 0 113.08 113.01"><defs><style>.cls-1{fill:#eef1ff;}.cls-2{fill:none;stroke:#eef1ff;stroke-miterlimit:10;}</style></defs><g id="Layer_2" data-name="Layer 2"><g id="Layer_1-2" data-name="Layer 1"><path class="cls-1" d="M110.79,79.47a16.81,16.81,0,0,0,1.75-6.72l-3.12,4.14,1.74-8.56-3.3,3.86s.55-2.57.91-4,1.84-7.83,1.84-7.83l-1,1.11s.55-4.7.92-8a42.28,42.28,0,0,0-.46-8.65l-2.48,2.67.74-7.36-1.29.27c-.37-4.78-2-16.1-2-16.1l-1.38,2.85c-2.29-8.1-9.36-14.26-9.36-14.26V16.7C90.78,11.18,83.16,5.75,83.16,5.75l1,2.48-6.7-3.4.37.92S69.39,2.8,66.27,2.07,56.54.5,56.54.5s-6.61.83-9.73,1.57S35.24,5.75,35.24,5.75l.37-.92-6.7,3.4,1-2.48s-7.62,5.43-11.11,11V12.84S11.74,19,9.44,27.1L8.07,24.25s-1.66,11.32-2,16.1l-1.29-.27.74,7.36L3,44.77a42.28,42.28,0,0,0-.46,8.65c.37,3.31.92,8,.92,8l-1-1.11s1.48,6.35,1.84,7.83.92,4,.92,4l-3.3-3.86,1.74,8.56L.54,72.75a16.9,16.9,0,0,0,1.74,6.72c1.66,3,2.85,5.15,2.85,5.15l-2.94-2s4,6.81,7.53,9.76,3.58,3.86,3.58,3.86l-2.48.19,8.72,5.43-1.83.73s8.17,4.79,9.45,5S33.4,109,33.4,109a27.93,27.93,0,0,1-3.93,1,80.68,80.68,0,0,0,10.82,1.55c4.22.1,16.25.92,16.25.92s12-.82,16.25-.92A80.94,80.94,0,0,0,83.61,110a28.15,28.15,0,0,1-3.94-1s5-1.29,6.25-1.48,9.45-5,9.45-5l-1.83-.73,8.72-5.43-2.48-.19s0-.92,3.58-3.86,7.53-9.76,7.53-9.76l-2.94,2S109.14,82.5,110.79,79.47Zm-79,2.62c-5.69-1.2-3.26-9.8-3.26-9.8C26.89,71,22.8,69.8,22.8,69.8c9.55-1,13.59,3,15.42,5.25S37.49,83.28,31.8,82.09Zm24,25.14c-4.8,0-14.17-11.9-14.17-11.9s2.75-14.7,14.94-14.7,14.94,14.7,14.94,14.7S60.57,107.23,55.77,107.23ZM84.54,72.29s2.43,8.6-3.26,9.8-8.26-4.83-6.43-7,5.88-6.21,15.43-5.25C90.28,69.8,86.19,71,84.54,72.29Z"/><path class="cls-2" d="M110.79,79.47a16.81,16.81,0,0,0,1.75-6.72l-3.12,4.14,1.74-8.56-3.3,3.86s.55-2.57.91-4,1.84-7.83,1.84-7.83l-1,1.11s.55-4.7.92-8a42.28,42.28,0,0,0-.46-8.65l-2.48,2.67.74-7.36-1.29.27c-.37-4.78-2-16.1-2-16.1l-1.38,2.85c-2.29-8.1-9.36-14.26-9.36-14.26V16.7C90.78,11.18,83.16,5.75,83.16,5.75l1,2.48-6.7-3.4.37.92S69.39,2.8,66.27,2.07,56.54.5,56.54.5s-6.61.83-9.73,1.57S35.24,5.75,35.24,5.75l.37-.92-6.7,3.4,1-2.48s-7.62,5.43-11.11,11V12.84S11.74,19,9.44,27.1L8.07,24.25s-1.66,11.32-2,16.1l-1.29-.27.74,7.36L3,44.77a42.28,42.28,0,0,0-.46,8.65c.37,3.31.92,8,.92,8l-1-1.11s1.48,6.35,1.84,7.83.92,4,.92,4l-3.3-3.86,1.74,8.56L.54,72.75a16.9,16.9,0,0,0,1.74,6.72c1.66,3,2.85,5.15,2.85,5.15l-2.94-2s4,6.81,7.53,9.76,3.58,3.86,3.58,3.86l-2.48.19,8.72,5.43-1.83.73s8.17,4.79,9.45,5S33.4,109,33.4,109a27.93,27.93,0,0,1-3.93,1,80.68,80.68,0,0,0,10.82,1.55c4.22.1,16.25.92,16.25.92s12-.82,16.25-.92A80.94,80.94,0,0,0,83.61,110a28.15,28.15,0,0,1-3.94-1s5-1.29,6.25-1.48,9.45-5,9.45-5l-1.83-.73,8.72-5.43-2.48-.19s0-.92,3.58-3.86,7.53-9.76,7.53-9.76l-2.94,2S109.14,82.5,110.79,79.47Zm-79,2.62c-5.69-1.2-3.26-9.8-3.26-9.8C26.89,71,22.8,69.8,22.8,69.8c9.55-1,13.59,3,15.42,5.25S37.49,83.28,31.8,82.09Zm24,25.14c-4.8,0-14.17-11.9-14.17-11.9s2.75-14.7,14.94-14.7,14.94,14.7,14.94,14.7S60.57,107.23,55.77,107.23ZM84.54,72.29s2.43,8.6-3.26,9.8-8.26-4.83-6.43-7,5.88-6.21,15.43-5.25C90.28,69.8,86.19,71,84.54,72.29Z"/></g></g></svg>