<svg width="352" height="36" viewBox="0 0 352 36" fill="none" xmlns="http://www.w3.org/2000/svg">
<path d="M21.7862 15.5935L7.18975 0.441944H0.0378418V35.61H9.62123V16.7448L21.7862 29.3415L33.8987 16.7448V35.61H43.5346V0.441944H36.3828L21.7862 15.5935ZM46.5665 35.61H86.5137V0.538498H46.5665V35.61ZM56.1199 9.42147H76.9002V26.7271H56.1199V9.42147ZM89.4852 35.61H129.433V0.538498H89.4852V35.61ZM99.0987 9.42147H119.879V26.7271H99.0987V9.42147ZM161.53 20.5624L139.737 0.389954H132.434V35.61H142.018V15.5416L163.812 35.61H171.113V0.389954H161.53V20.5624ZM183.998 9.42147H211.48V0.538498H174.423V19.8048L202.1 23.8676V26.43H174.115V35.61H211.684V16.2917L183.998 12.281V9.42147ZM233.544 0.389954L214.67 28.7399V35.61H258.197V28.7399L239.323 0.389954H233.544ZM227.961 26.0289L236.381 13.3356L244.899 26.0289H227.961ZM282.925 15.5935L268.328 0.441944H261.183V35.61H270.759V16.7448L282.925 29.3415L295.045 16.7448V35.61H304.673V0.441944H297.529L282.925 15.5935ZM332.313 0.389954H326.534L307.675 28.7399V35.61H351.202V28.7399L332.313 0.389954ZM320.958 26.0289L329.379 13.3356L337.888 26.0289H320.958Z" fill="white"/>
</svg>
