<svg width="245" height="72" viewBox="0 0 245 72" fill="none" xmlns="http://www.w3.org/2000/svg">
<g filter="url(#filter0_d_79_6949)">
<rect width="245" height="64" rx="32" fill="#E0174D" shape-rendering="crispEdges"/>
<rect width="245" height="64" rx="32" fill="url(#paint0_linear_79_6949)" fill-opacity="0.3" shape-rendering="crispEdges"/>
<path d="M47.7617 24.25C48.8086 24.25 49.7617 24.5078 50.6211 25.0234C51.4805 25.5312 52.1641 26.2148 52.6719 27.0742C53.1875 27.9336 53.4453 28.8867 53.4453 29.9336C53.4453 30.9805 53.1875 31.9375 52.6719 32.8047C52.1641 33.6641 51.4805 34.3477 50.6211 34.8555C49.7617 35.3633 48.8086 35.6172 47.7617 35.6172H37.0391V40H32.2344V24.25H32.4453H37.0391H47.7617ZM46.4492 32.125C47.0508 32.125 47.5664 31.9102 47.9961 31.4805C48.4258 31.0508 48.6406 30.5352 48.6406 29.9336C48.6406 29.332 48.4258 28.8164 47.9961 28.3867C47.5664 27.957 47.0508 27.7422 46.4492 27.7422H37.0391V32.125H46.4492ZM55.0859 24.25H59.8906V36.5078H74.668V40H55.0859V24.25ZM90.6055 24.25L99.0547 40H93.7109L92.0586 36.7188H82.1445L80.4922 40H75.1484L83.5977 24.25H90.6055ZM90.4531 33.5195L87.1016 26.8164L83.7383 33.5195H90.4531ZM111.934 24.25H117.359L108.57 34.5742V40H103.766V34.5742L94.9766 24.25H100.402L106.168 31.3398L111.934 24.25ZM151.859 40H145.566L134.352 27.4492V40H129.547V24.25H137.562L147.043 35.2656V24.25H151.859V40ZM176.07 32.5586C176.07 35.1133 175.152 37.0547 173.316 38.3828C171.488 39.7109 168.711 40.375 164.984 40.375C161.25 40.375 158.469 39.7109 156.641 38.3828C154.812 37.0547 153.898 35.1133 153.898 32.5586V31.6914C153.898 29.1289 154.812 27.1836 156.641 25.8555C158.469 24.5273 161.25 23.8633 164.984 23.8633C168.711 23.8633 171.488 24.5273 173.316 25.8555C175.152 27.1836 176.07 29.1289 176.07 31.6914V32.5586ZM158.68 32.3359C158.68 33.25 158.844 33.9961 159.172 34.5742C159.508 35.1445 159.934 35.5938 160.449 35.9219C160.965 36.2422 161.512 36.4727 162.09 36.6133C162.668 36.7539 163.215 36.8398 163.73 36.8711C164.254 36.8945 164.672 36.9062 164.984 36.9062C165.297 36.9062 165.711 36.8945 166.227 36.8711C166.742 36.8398 167.289 36.7539 167.867 36.6133C168.453 36.4727 169.004 36.2422 169.52 35.9219C170.035 35.5938 170.457 35.1445 170.785 34.5742C171.121 33.9961 171.289 33.25 171.289 32.3359V31.9023C171.289 30.9883 171.121 30.2461 170.785 29.6758C170.457 29.0977 170.035 28.6484 169.52 28.3281C169.004 28.0078 168.453 27.7773 167.867 27.6367C167.289 27.4961 166.742 27.4141 166.227 27.3906C165.711 27.3594 165.297 27.3438 164.984 27.3438C164.672 27.3438 164.254 27.3594 163.73 27.3906C163.215 27.4141 162.668 27.4961 162.09 27.6367C161.512 27.7773 160.965 28.0078 160.449 28.3281C159.934 28.6484 159.508 29.0977 159.172 29.6758C158.844 30.2461 158.68 30.9883 158.68 31.9023V32.3359ZM206.715 24.25H212.152L205.238 40H198.359L193.707 29.4062L189.055 40H182.164L175.25 24.25H180.688L185.609 36.6602L190.531 24.25H196.871L201.793 36.6602L206.715 24.25Z" fill="white"/>
<rect x="1.5" y="1.5" width="242" height="61" rx="30.5" stroke="#E0174D" stroke-width="3" shape-rendering="crispEdges"/>
</g>
<defs>
<filter id="filter0_d_79_6949" x="0" y="0" width="245" height="72" filterUnits="userSpaceOnUse" color-interpolation-filters="sRGB">
<feFlood flood-opacity="0" result="BackgroundImageFix"/>
<feColorMatrix in="SourceAlpha" type="matrix" values="0 0 0 0 0 0 0 0 0 0 0 0 0 0 0 0 0 0 127 0" result="hardAlpha"/>
<feOffset dy="8"/>
<feComposite in2="hardAlpha" operator="out"/>
<feColorMatrix type="matrix" values="0 0 0 0 0.354167 0 0 0 0 0 0 0 0 0 0.0951493 0 0 0 1 0"/>
<feBlend mode="normal" in2="BackgroundImageFix" result="effect1_dropShadow_79_6949"/>
<feBlend mode="normal" in="SourceGraphic" in2="effect1_dropShadow_79_6949" result="shape"/>
</filter>
<linearGradient id="paint0_linear_79_6949" x1="122.5" y1="0" x2="122.5" y2="64" gradientUnits="userSpaceOnUse">
<stop/>
<stop offset="0.623345" stop-opacity="0"/>
</linearGradient>
</defs>
</svg>
